<svg xmlns="http://www.w3.org/2000/svg" viewBox="0 0 200 160" width="200" height="160">
  <rect width="200" height="160" rx="12" ry="12" fill="#f1f5f9"/>
  <!-- Opener unit body -->
  <rect x="50" y="35" width="100" height="45" rx="6" fill="#0F3D3E"/>
  <rect x="55" y="40" width="90" height="35" rx="4" fill="none" stroke="#64748B" stroke-width="1"/>
  <!-- Power indicator -->
  <circle cx="135" cy="50" r="3" fill="#FFB703"/>
  <!-- Rail -->
  <rect x="95" y="80" width="10" height="15" rx="2" fill="none" stroke="#64748B" stroke-width="1.5"/>
  <!-- Wrench icon -->
  <g transform="translate(100,118) rotate(-30)">
    <!-- Wrench handle -->
    <rect x="-4" y="-20" width="8" height="28" rx="3" fill="#FFB703"/>
    <!-- Wrench head -->
    <path d="M-8,-20 C-8,-28 -4,-32 0,-32 C4,-32 8,-28 8,-20 L4,-20 C4,-24 2,-26 0,-26 C-2,-26 -4,-24 -4,-20 Z" fill="#FFB703"/>
  </g>
</svg>