<svg xmlns="http://www.w3.org/2000/svg" viewBox="0 0 200 160" width="200" height="160">
  <rect width="200" height="160" rx="12" ry="12" fill="#f1f5f9"/>
  <!-- Left torsion spring -->
  <g transform="translate(65,80)">
    <path d="M-22,-30 C-22,-30 -10,-35 0,-25 C10,-15 10,-10 0,-5 C-10,0 -10,5 0,10 C10,15 10,20 0,25 C-10,30 -10,33 -2,36" fill="none" stroke="#0F3D3E" stroke-width="3" stroke-linecap="round"/>
    <line x1="-22" y1="-30" x2="-32" y2="-38" stroke="#0F3D3E" stroke-width="2.5" stroke-linecap="round"/>
    <line x1="-2" y1="36" x2="8" y2="44" stroke="#0F3D3E" stroke-width="2.5" stroke-linecap="round"/>
  </g>
  <!-- Right torsion spring -->
  <g transform="translate(135,80)">
    <path d="M-22,-30 C-22,-30 -10,-35 0,-25 C10,-15 10,-10 0,-5 C-10,0 -10,5 0,10 C10,15 10,20 0,25 C-10,30 -10,33 -2,36" fill="none" stroke="#0F3D3E" stroke-width="3" stroke-linecap="round"/>
    <line x1="-22" y1="-30" x2="-32" y2="-38" stroke="#0F3D3E" stroke-width="2.5" stroke-linecap="round"/>
    <line x1="-2" y1="36" x2="8" y2="44" stroke="#0F3D3E" stroke-width="2.5" stroke-linecap="round"/>
  </g>
  <!-- Connecting bar -->
  <line x1="43" y1="80" x2="113" y2="80" stroke="#64748B" stroke-width="2" stroke-dasharray="4,3"/>
  <!-- Accent highlights -->
  <circle cx="65" cy="80" r="2" fill="#FFB703"/>
  <circle cx="135" cy="80" r="2" fill="#FFB703"/>
</svg>